<svg width="14" height="14" viewBox="0 0 14 14" fill="none" xmlns="http://www.w3.org/2000/svg">
<path d="M12.0068 2.89992L8.04678 0.613252C7.40011 0.239919 6.60011 0.239919 5.94678 0.613252L1.99344 2.89992C1.34678 3.27325 0.946777 3.96659 0.946777 4.71992V9.27992C0.946777 10.0266 1.34678 10.7199 1.99344 11.0999L5.95344 13.3866C6.60011 13.7599 7.40011 13.7599 8.05344 13.3866L12.0134 11.0999C12.6601 10.7266 13.0601 10.0333 13.0601 9.27992V4.71992C13.0534 3.96659 12.6534 3.27992 12.0068 2.89992ZM6.50011 4.16659C6.50011 3.89325 6.72678 3.66659 7.00011 3.66659C7.27344 3.66659 7.50011 3.89325 7.50011 4.16659V7.66659C7.50011 7.93992 7.27344 8.16659 7.00011 8.16659C6.72678 8.16659 6.50011 7.93992 6.50011 7.66659V4.16659ZM7.61344 10.0866C7.58011 10.1666 7.53344 10.2399 7.47344 10.3066C7.34678 10.4333 7.18011 10.4999 7.00011 10.4999C6.91344 10.4999 6.82678 10.4799 6.74678 10.4466C6.66011 10.4133 6.59344 10.3666 6.52678 10.3066C6.46678 10.2399 6.42011 10.1666 6.38011 10.0866C6.34678 10.0066 6.33344 9.91992 6.33344 9.83325C6.33344 9.65992 6.40011 9.48659 6.52678 9.35992C6.59344 9.29992 6.66011 9.25325 6.74678 9.21992C6.99344 9.11325 7.28678 9.17325 7.47344 9.35992C7.53344 9.42659 7.58011 9.49325 7.61344 9.57992C7.64678 9.65992 7.66678 9.74659 7.66678 9.83325C7.66678 9.91992 7.64678 10.0066 7.61344 10.0866Z" fill="#C80A15"/>
</svg>
