<svg width="385" height="28" viewBox="0 0 385 28" fill="none" xmlns="http://www.w3.org/2000/svg">
<g clip-path="url(#clip0_13_198)">
<rect y="13.5" width="170" height="1" fill="#272727"/>
<path d="M190.073 19.168C188.407 19.168 186.923 17.866 186.923 15.612C186.923 13.33 188.407 12.028 190.073 12.028C191.739 12.028 193.223 13.33 193.223 15.612C193.223 17.866 191.739 19.168 190.073 19.168ZM190.073 18.216C191.249 18.216 192.033 17.166 192.033 15.612C192.033 14.044 191.249 12.98 190.073 12.98C188.911 12.98 188.113 14.044 188.113 15.612C188.113 17.166 188.911 18.216 190.073 18.216ZM195.015 19V12.196H195.967L196.065 13.428H196.107C196.569 12.574 197.269 12.028 198.039 12.028C198.333 12.028 198.543 12.07 198.767 12.168L198.543 13.176C198.319 13.106 198.165 13.064 197.885 13.064C197.311 13.064 196.625 13.484 196.163 14.632V19H195.015Z" fill="white"/>
<rect x="215" y="13.5" width="170" height="1" fill="#272727"/>
</g>
<defs>
<clipPath id="clip0_13_198">
<rect width="385" height="28" fill="white"/>
</clipPath>
</defs>
</svg>
