<svg width="18" height="18" viewBox="0 0 18 18" fill="none" xmlns="http://www.w3.org/2000/svg">
<g clip-path="url(#clip0_13_376)">
<path d="M14.8416 6.07226L14.8424 6.07172L14.8354 6.06464C14.7301 5.9594 14.5966 5.87834 14.4598 5.85097C14.3212 5.82326 14.1784 5.85093 14.0646 5.96464C13.9594 6.06989 13.8783 6.20336 13.851 6.34019C13.8235 6.47748 13.8504 6.61897 13.9615 6.73215C14.6531 7.72182 14.95 8.81035 14.95 10C14.95 13.2724 12.2724 15.95 9 15.95C5.72761 15.95 3.05 13.2724 3.05 10C3.05 6.72761 5.72761 4.05 9 4.05C10.3883 4.05 11.5764 4.44594 12.6664 5.33715C12.886 5.55488 13.2164 5.55428 13.4354 5.33536L14.8354 3.93536C15.0549 3.71583 15.0549 3.38417 14.8354 3.16464C14.6158 2.94512 14.2842 2.94512 14.0646 3.16464L12.9962 4.23313C12.0059 3.45362 10.8251 3.05905 9.55 2.95383V2.05H10.5C10.6614 2.05 10.7997 1.99599 10.8979 1.89786C10.996 1.79972 11.05 1.66136 11.05 1.5C11.05 1.33864 10.996 1.20028 10.8979 1.10214C10.7997 1.00401 10.6614 0.95 10.5 0.95H7.5C7.33864 0.95 7.20028 1.00401 7.10214 1.10214C7.00401 1.20028 6.95 1.33864 6.95 1.5C6.95 1.66136 7.00401 1.79972 7.10214 1.89786C7.20028 1.99599 7.33864 2.05 7.5 2.05H8.45V2.95414C4.8463 3.27776 1.95 6.28876 1.95 10C1.95 13.9276 5.07239 17.05 9 17.05C12.9276 17.05 16.05 13.9276 16.05 10C16.05 8.58982 15.6469 7.28022 14.8416 6.07226Z" fill="#A0A0A0" stroke="#A0A0A0" stroke-width="0.1"/>
<path d="M8.45 6.5V10C8.45 10.1614 8.50401 10.2997 8.60214 10.3979C8.70028 10.496 8.83864 10.55 9 10.55C9.16136 10.55 9.29972 10.496 9.39786 10.3979C9.49599 10.2997 9.55 10.1614 9.55 10V6.5C9.55 6.33864 9.49599 6.20028 9.39786 6.10214C9.29972 6.00401 9.16136 5.95 9 5.95C8.83864 5.95 8.70028 6.00401 8.60214 6.10214C8.50401 6.20028 8.45 6.33864 8.45 6.5Z" fill="#A0A0A0" stroke="#A0A0A0" stroke-width="0.1"/>
</g>
<defs>
<clipPath id="clip0_13_376">
<rect width="18" height="18" fill="white"/>
</clipPath>
</defs>
</svg>
