<svg width="64" height="64" viewBox="0 0 64 64" fill="none" xmlns="http://www.w3.org/2000/svg">
<rect width="64" height="64" rx="14.2222" fill="#3C66FA"/>
<path d="M46.2681 33.1728C45.9439 31.5019 45.0012 29.9997 43.6134 28.9427C42.2257 27.8856 40.4864 27.3451 38.716 27.4205C36.9455 27.496 35.2631 28.1823 33.9786 29.3532C32.6941 30.5241 31.894 32.1007 31.7256 33.7925C31.5573 35.4844 32.032 37.1776 33.0625 38.5603C34.0929 39.9431 35.6095 40.9222 37.3332 41.3174C39.0568 41.7126 40.8713 41.4972 42.4424 40.711C44.0136 39.9248 45.2356 38.6206 45.8834 37.0387H42.043C41.6668 37.4437 41.2056 37.7681 40.6896 37.9905C40.1737 38.2129 39.6146 38.3283 39.0489 38.3293C38.2173 38.3262 37.4069 38.0774 36.728 37.6168C36.0492 37.1561 35.5348 36.5061 35.2549 35.7551H46.2681C46.4353 34.9021 46.4353 34.0268 46.2681 33.1738V33.1728ZM35.2486 33.1728C35.5285 32.4218 36.0428 31.7718 36.7217 31.3111C37.4006 30.8505 38.211 30.6017 39.0426 30.5986C39.8742 30.6016 40.6847 30.8503 41.3636 31.311C42.0425 31.7716 42.5569 32.4217 42.8366 33.1728H35.2486Z" fill="white"/>
<path d="M29.2341 27.9189C29.2341 24.6706 26.6373 22.2217 23.1932 22.2217H13.334V41.4944H23.2943C27.1537 41.4944 30.0635 38.9 30.0635 35.4596C30.0736 34.6617 29.9053 33.8709 29.5699 33.1406C29.2344 32.4103 28.7397 31.7574 28.119 31.2259C28.841 30.3132 29.2341 29.0873 29.2341 27.9189ZM23.8993 38.3289H16.6274V32.8136H23.8993C24.6618 32.8136 25.393 33.1041 25.9322 33.6212C26.4714 34.1383 26.7743 34.8395 26.7743 35.5708C26.7744 35.9329 26.7002 36.2916 26.5557 36.6262C26.4113 36.9608 26.1996 37.2649 25.9326 37.521C25.6656 37.7772 25.3486 37.9803 24.9997 38.119C24.6508 38.2576 24.2769 38.3289 23.8993 38.3289ZM16.6274 25.4033H23.7412C24.3259 25.4033 24.8867 25.6261 25.3002 26.0226C25.7136 26.4191 25.9459 26.9569 25.9459 27.5177C25.9459 28.0784 25.7136 28.6162 25.3002 29.0127C24.8867 29.4092 24.3259 29.632 23.7412 29.632H16.6232L16.6274 25.4033Z" fill="white"/>
<path d="M51.3263 22.2217H48.0371V35.7547H51.3263V22.2217Z" fill="white"/>
<path d="M51.3263 38.3284H48.0371V41.4827H51.3263V38.3284Z" fill="white"/>
</svg>
